<?xml version="1.0" encoding="utf-8"?>
<!-- Generator: Adobe Illustrator 24.0.0, SVG Export Plug-In . SVG Version: 6.00 Build 0)  -->
<svg version="1.1" id="图层_1" xmlns="http://www.w3.org/2000/svg" xmlns:xlink="http://www.w3.org/1999/xlink" x="0px" y="0px"
	 viewBox="0 0 200 200" style="enable-background:new 0 0 200 200;" xml:space="preserve">
<style type="text/css">
	.st0{fill:#FF1D1D;}
</style>
<path class="st0" d="M75.9,91H29.6c-6.1,0-11.1-5-11.1-11.1V33.6c0-6.1,5-11.1,11.1-11.1h46.3c6.1,0,11.1,5,11.1,11.1v46.3
	C87,86,82,91,75.9,91z M29.6,29.4c-2.3,0-4.2,1.9-4.2,4.2v46.3c0,2.3,1.9,4.2,4.2,4.2h46.3c2.3,0,4.2-1.9,4.2-4.2V33.6
	c0-2.3-1.9-4.2-4.2-4.2C75.9,29.4,29.6,29.4,29.6,29.4z M170.3,91H124c-6.1,0-11.1-5-11.1-11.1V33.6c0-6.1,5-11.1,11.1-11.1h46.3
	c6.1,0,11.1,5,11.1,11.1v46.3C181.4,86,176.4,91,170.3,91z M124,29.4c-2.3,0-4.2,1.9-4.2,4.2v46.3c0,2.3,1.9,4.2,4.2,4.2h46.3
	c2.3,0,4.2-1.9,4.2-4.2V33.6c0-2.3-1.9-4.2-4.2-4.2C170.3,29.4,124,29.4,124,29.4z M75.9,177.3H29.6c-6.1,0-11.1-5-11.1-11.1v-46.3
	c0-6.1,5-11.1,11.1-11.1h46.3c6.1,0,11.1,5,11.1,11.1v46.3C87,172.3,82,177.3,75.9,177.3z M29.6,115.7c-2.3,0-4.2,1.9-4.2,4.2v46.3
	c0,2.3,1.9,4.2,4.2,4.2h46.3c2.3,0,4.2-1.9,4.2-4.2v-46.3c0-2.3-1.9-4.2-4.2-4.2H29.6z M170.3,177.3H124c-6.1,0-11.1-5-11.1-11.1
	v-46.3c0-6.1,5-11.1,11.1-11.1h46.3c6.1,0,11.1,5,11.1,11.1v46.3C181.4,172.3,176.4,177.3,170.3,177.3z M124,115.7
	c-2.3,0-4.2,1.9-4.2,4.2v46.3c0,2.3,1.9,4.2,4.2,4.2h46.3c2.3,0,4.2-1.9,4.2-4.2v-46.3c0-2.3-1.9-4.2-4.2-4.2H124z"/>
</svg>
