<?xml version="1.0" encoding="utf-8"?>
<!-- Generator: Adobe Illustrator 24.0.0, SVG Export Plug-In . SVG Version: 6.00 Build 0)  -->
<svg version="1.1" id="图层_1" xmlns="http://www.w3.org/2000/svg" xmlns:xlink="http://www.w3.org/1999/xlink" x="0px" y="0px"
	 viewBox="0 0 200 200" style="enable-background:new 0 0 200 200;" xml:space="preserve">
<style type="text/css">
	.st0{fill:#FF1D1D;}
</style>
<path class="st0" d="M102.4,23c-1.4,1.1-3.3,1.1-4.7,0l81,65.1c2.3,1.9,5.7,1.5,7.6-0.8c1.9-2.3,1.5-5.7-0.8-7.6l-81-65.1
	c-2.6-2.1-6.3-2-8.9,0L14.5,81c-2.3,1.9-2.6,5.3-0.8,7.6s5.3,2.6,7.6,0.8L102.4,23z"/>
<path class="st0" d="M185.4,109.3l-81-65.1c-2.6-2.1-6.3-2-8.9,0l-81,66.4c-2.3,1.9-2.6,5.3-0.8,7.6c1.9,2.3,5.3,2.6,7.6,0.8
	l11.4-9.3v61.7c0,8.9,7.2,16.1,16.1,16.1h33.6h5.4V182v-36.8c0-1.5,1.2-2.7,2.7-2.7h18.8c1.5,0,2.7,1.2,2.7,2.7V182v5.4h5.4H151
	c8.9,0,16.1-7.2,16.1-16.1v-62.8l11.4,9.2c2.3,1.9,5.7,1.5,7.6-0.8C188.1,114.5,187.7,111.1,185.4,109.3z M156.5,171.3
	c0,3-2.4,5.4-5.4,5.4h-28.2v-31.4c0-7.4-6-13.5-13.4-13.5H90.6c-7.4,0-13.4,6-13.4,13.5v31.4H48.9c-3,0-5.4-2.4-5.4-5.4v-70.5
	L100,54.5l56.5,45.3V171.3L156.5,171.3z"/>
</svg>
