<?xml version="1.0" encoding="utf-8"?>
<!-- Generator: Adobe Illustrator 24.0.0, SVG Export Plug-In . SVG Version: 6.00 Build 0)  -->
<svg version="1.1" id="图层_1" xmlns="http://www.w3.org/2000/svg" xmlns:xlink="http://www.w3.org/1999/xlink" x="0px" y="0px"
	 viewBox="0 0 200 200" style="enable-background:new 0 0 200 200;" xml:space="preserve">
<style type="text/css">
	.st0{fill:#FF1D1D;}
</style>
<path class="st0" d="M96.8,109.7c8.1,0,16.7,1.2,24.8,3.4c6.6,1.8,12.7,4.3,16.7,6.8h0.1h0.1c10.5,6.3,19.2,14.2,25.9,23.7
	c6.2,8.7,10.5,18.5,12.9,29.2H22.9c1.8-7.9,4.7-15.4,8.7-22.5c4.3-7.7,9.8-14.5,16.2-20.4c6.4-5.9,13.6-10.6,21.4-14
	c8-3.5,16.4-5.6,25.1-6.3h0.1h0.1L96.8,109.7 M96.8,99.9c-1,0-2.2,0-3.2,0.1c-39.8,2.9-73,33.2-80.9,73.9c-0.4,2.1,0,4.6,1.7,6.2
	c1.3,1.7,3.3,2.5,5.4,2.5h160.6c2.1,0,4.1-0.8,5.4-2.5s2.1-3.7,1.7-6.2c-5-26.6-20.8-48.4-44-62.3C134.6,106.1,116.5,99.9,96.8,99.9
	L96.8,99.9z"/>
<path class="st0" d="M100,27.2c9,0,17.5,3.5,23.9,9.9s9.9,14.9,9.9,23.9s-3.5,17.5-9.9,23.9S109,94.8,100,94.8s-17.5-3.5-23.9-9.9
	S66.2,70,66.2,61s3.5-17.5,9.9-23.9S91,27.2,100,27.2 M100,17.4c-24.1,0-43.6,19.5-43.6,43.6s19.5,43.6,43.6,43.6S143.6,85,143.6,61
	S124.1,17.4,100,17.4z"/>
</svg>
