<?xml version="1.0" encoding="utf-8"?>
<!-- Generator: Adobe Illustrator 24.0.0, SVG Export Plug-In . SVG Version: 6.00 Build 0)  -->
<svg version="1.1" id="图层_1" xmlns="http://www.w3.org/2000/svg" xmlns:xlink="http://www.w3.org/1999/xlink" x="0px" y="0px"
	 viewBox="0 0 200 200" style="enable-background:new 0 0 200 200;" xml:space="preserve">
<style type="text/css">
	.st0{fill:#FF1D1D;}
</style>
<path class="st0" d="M164.2,154.7H58.8c-7.8,0-10.7-7.9-11.1-12.1l-13-111.1c-0.2-2.1-1.3-3.9-2.8-4.9c-0.8-0.5-1.6-0.8-2.3-0.8h-16
	v-8.1h15.9c2.3-0.1,4.6,0.7,6.8,2.1c3.5,2.3,5.9,6.2,6.4,10.7l13.1,111.1c0,0.1,0.7,4.9,3.1,4.9h105.4v8.2H164.2z"/>
<path class="st0" d="M155.6,132.1h-105V124h105.1c2.4,0,4.5-1.7,5.4-4.1c3.1-9.3,6.3-18.6,9.5-27.9c4-11.9,8.1-23.9,10.4-30.8
	c1.6-4.8,1.7-8.5,0.3-10.4c-1.2-1.7-3.5-1.8-3.6-1.8H40.2v-8h137.4c0.7,0,6.5,0.1,10.1,5.1c3,4.2,3.3,10.1,0.8,17.6
	c-2.3,6.9-6.4,19-10.4,30.9c-3.2,9.3-6.3,18.6-9.4,27.9C166.7,128.2,161.5,132.1,155.6,132.1L155.6,132.1z M65.5,179.9
	c-9.2,0-16.6-7.5-16.6-16.6c0-9.2,7.5-16.6,16.6-16.6s16.6,7.5,16.6,16.6S74.7,179.9,65.5,179.9z M65.5,154.7
	c-4.7,0-8.6,3.8-8.6,8.6s3.9,8.6,8.6,8.6s8.6-3.9,8.6-8.6S70.2,154.7,65.5,154.7z M159.8,179.9c-9.2,0-16.6-7.5-16.6-16.6
	c0-9.2,7.5-16.6,16.6-16.6c9.2,0,16.6,7.5,16.6,16.6C176.4,172.4,168.9,179.9,159.8,179.9z M159.8,154.7c-4.7,0-8.6,3.8-8.6,8.6
	s3.9,8.6,8.6,8.6s8.6-3.9,8.6-8.6S164.5,154.7,159.8,154.7z"/>
</svg>
